<?xml version="1.0" encoding="UTF-8"?>
<!DOCTYPE svg PUBLIC "-//W3C//DTD SVG 1.1//EN" "http://www.w3.org/Graphics/SVG/1.1/DTD/svg11.dtd">
<!-- Creator: CorelDRAW 2021 (64-Bit) -->
<svg xmlns="http://www.w3.org/2000/svg" xml:space="preserve" width="91.44mm" height="91.44mm" version="1.1" style="shape-rendering:geometricPrecision; text-rendering:geometricPrecision; image-rendering:optimizeQuality; fill-rule:evenodd; clip-rule:evenodd"
viewBox="0 0 74.95 74.95"
 xmlns:xlink="http://www.w3.org/1999/xlink"
 xmlns:xodm="http://www.corel.com/coreldraw/odm/2003">
 <defs>
  <style type="text/css">
   <![CDATA[
    .fil1 {fill:#60A37E;fill-rule:nonzero}
    .fil0 {fill:#E8FFF2;fill-rule:nonzero}
   ]]>
  </style>
 </defs>
 <g id="Layer_x0020_1">
  <metadata id="CorelCorpID_0Corel-Layer"/>
  <circle class="fil0" cx="37.48" cy="37.48" r="37.48"/>
  <path class="fil1" d="M9.97 35.06c0.25,-1.04 0.56,-2.06 1.21,-2.96 1.42,-1.92 3.33,-2.81 5.68,-2.83 4.43,0 8.89,0 13.32,0 0.21,0 0.42,0 0.69,0 0,-0.29 0,-0.52 0,-0.75 0.02,-3 -0.04,-6.02 0.06,-9.01 0.1,-3.08 3,-5.87 6.1,-5.93 2.27,-0.04 4.54,-0.02 6.83,-0.02 5,0 9.99,-0.02 14.99,0.02 2.91,0.02 5.58,2.44 6.04,5.31 0.06,0.46 0.1,0.92 0.1,1.39 0,5 0,9.99 0,14.99 0,3.54 -2.25,6.18 -5.75,6.72 -0.35,0.06 -0.71,0.04 -1.06,0.04 -6.12,0 -12.24,0 -18.36,0 -0.35,0 -0.65,0.08 -0.92,0.33 -1.81,1.67 -3.62,3.31 -5.45,4.93 -0.31,0.29 -0.79,0.48 -1.23,0.52 -0.62,0.06 -1.17,-0.46 -1.27,-1.08 -0.04,-0.27 -0.04,-0.54 -0.04,-0.81 0,-4.41 0,-8.81 0,-13.22 0,-0.21 0,-0.42 0,-0.69 -0.23,0 -0.42,0 -0.58,0 -4.5,0 -8.99,0 -13.49,0 -1.98,0 -3.46,1.1 -3.96,2.98 -0.1,0.42 -0.12,0.85 -0.12,1.27 0,4.87 0.02,9.74 -0.02,14.62 -0.02,2.75 2.06,4.18 4.16,4.16 6.33,-0.04 12.68,0 19.01,-0.02 0.69,0 1.21,0.23 1.69,0.67 1.21,1.15 2.44,2.27 3.77,3.5 0,-0.29 0,-0.48 0,-0.67 0,-4.06 0,-8.12 0,-12.2 0,-0.62 0.29,-1.06 0.81,-1.33 0.5,-0.25 1,-0.17 1.39,0.21 0.23,0.23 0.37,0.56 0.48,0.85 0.08,0.21 0.04,0.46 0.04,0.69 0,5 0,9.99 0,14.99 0,0.06 0,0.1 0,0.17 0.02,0.71 -0.1,1.35 -0.85,1.64 -0.67,0.27 -1.21,-0.04 -1.69,-0.5 -1.77,-1.62 -3.54,-3.25 -5.29,-4.87 -0.27,-0.27 -0.56,-0.37 -0.96,-0.37 -6.16,0.02 -12.33,0.02 -18.49,0 -3.02,0 -5.5,-1.69 -6.47,-4.39 -0.15,-0.42 -0.25,-0.85 -0.35,-1.27 -0.02,-5.68 -0.02,-11.39 -0.02,-17.07zm23.63 8.33c0.35,-0.31 0.62,-0.56 0.9,-0.79 0.75,-0.67 1.54,-1.29 2.23,-2.02 0.98,-1.02 2.14,-1.33 3.54,-1.31 5.95,0.04 11.93,0.04 17.88,0 0.67,0 1.37,-0.12 1.96,-0.4 1.5,-0.71 2.14,-2.02 2.12,-3.66 0,-4.96 0,-9.91 0,-14.87 0,-0.37 -0.02,-0.75 -0.1,-1.12 -0.5,-1.92 -1.94,-2.94 -4.06,-2.94 -6.7,0 -13.43,0 -20.13,0 -0.44,0 -0.9,0.04 -1.33,0.15 -1.89,0.5 -2.98,1.96 -2.98,4 0,7.47 0,14.97 0,22.44 -0.02,0.12 -0.02,0.25 -0.02,0.52z"/>
  <path class="fil1" d="M20.26 44.62c-0.77,0 -1.44,-0.6 -1.46,-1.35 -0.02,-0.73 0.67,-1.39 1.42,-1.39 0.75,0 1.44,0.62 1.44,1.37 0.02,0.75 -0.62,1.37 -1.39,1.37z"/>
  <path class="fil1" d="M24.98 44.62c-0.77,0 -1.44,-0.62 -1.44,-1.37 0,-0.73 0.67,-1.37 1.44,-1.37 0.77,0 1.42,0.65 1.42,1.37 0,0.77 -0.62,1.37 -1.42,1.37z"/>
  <path class="fil1" d="M48.34 21.3c1.31,0.06 2.58,0.79 3.31,2.29 0.65,1.29 0.65,2.62 -0.29,3.79 -0.52,0.65 -1.21,1.17 -1.79,1.77 -0.25,0.27 -0.46,0.62 -0.58,0.96 -0.23,0.62 -0.83,1.06 -1.48,0.98 -0.75,-0.1 -1.19,-0.6 -1.21,-1.33 -0.02,-1.1 0.6,-1.87 1.35,-2.58 0.37,-0.35 0.77,-0.69 1.17,-1.04 0.4,-0.35 0.69,-0.75 0.42,-1.31 -0.25,-0.54 -0.79,-0.85 -1.33,-0.81 -0.56,0.04 -1.04,0.46 -1.19,1.02 -0.08,0.33 -0.12,0.71 -0.29,1.02 -0.31,0.56 -0.94,0.79 -1.52,0.6 -0.56,-0.17 -0.96,-0.71 -0.96,-1.33 -0.04,-2.21 1.79,-4.02 4.39,-4.02z"/>
  <path class="fil1" d="M47.68 32.37c0.71,0 1.37,0.67 1.37,1.37 0,0.71 -0.69,1.37 -1.39,1.37 -0.69,0 -1.31,-0.65 -1.33,-1.35 0,-0.73 0.62,-1.39 1.35,-1.39z"/>
 </g>
</svg>
