<?xml version="1.0" encoding="UTF-8"?>
<!DOCTYPE svg PUBLIC "-//W3C//DTD SVG 1.1//EN" "http://www.w3.org/Graphics/SVG/1.1/DTD/svg11.dtd">
<!-- Creator: CorelDRAW 2021 (64-Bit) -->
<svg xmlns="http://www.w3.org/2000/svg" xml:space="preserve" width="14.8166mm" height="10.5844mm" version="1.1" style="shape-rendering:geometricPrecision; text-rendering:geometricPrecision; image-rendering:optimizeQuality; fill-rule:evenodd; clip-rule:evenodd"
viewBox="0 0 492.15 351.57"
 xmlns:xlink="http://www.w3.org/1999/xlink"
 xmlns:xodm="http://www.corel.com/coreldraw/odm/2003">
 <defs>
  <style type="text/css">
   <![CDATA[
    .fil0 {fill:#D8F0E3;fill-rule:nonzero}
   ]]>
  </style>
 </defs>
 <g id="Layer_x0020_1">
  <metadata id="CorelCorpID_0Corel-Layer"/>
  <path class="fil0" d="M309.8 284.16c55.61,-17.14 84.67,-55.1 82.15,-108.98 -34.7,-9.85 -68.88,-39.2 -68.88,-83.32l0 -9.76c-0.42,-11 1.44,-21.97 5.45,-32.2 4.01,-10.23 10.08,-19.5 17.83,-27.22 7.75,-7.72 17,-13.71 27.17,-17.6 10.17,-3.89 21.03,-5.58 31.88,-4.97 53.09,0 86.75,41.57 86.75,107.66l0 12.3c0,83.23 -21.69,140.62 -60.73,178.76 -31.49,33.04 -78.6,52.73 -113.73,52.73 -25.33,0 -37.39,-14.68 -37.39,-34.28 0.52,-17.23 12.58,-28.3 29.5,-33.13zm-280.39 0c55.61,-17.14 84.58,-55.1 82.15,-108.98 -34.7,-9.85 -68.88,-39.2 -68.88,-83.32l0 -9.76c-0.42,-10.98 1.44,-21.94 5.44,-32.16 4,-10.22 10.05,-19.48 17.79,-27.2 7.73,-7.72 16.96,-13.71 27.11,-17.61 10.15,-3.9 20.99,-5.61 31.82,-5.03 53.27,0 86.75,41.57 86.75,107.66l0 12.3c0,83.23 -21.78,140.62 -59.25,178.76 -32.71,33.04 -79.81,52.73 -113.65,52.73 -25.42,0 -38.69,-14.68 -38.69,-34.28 0.35,-17.23 12.41,-28.3 29.41,-33.13z"/>
 </g>
</svg>
