<svg xmlns="http://www.w3.org/2000/svg" width="51" height="51" viewBox="0 0 51 51">
    <path fill="#4788F4" fill-rule="evenodd" d="M13.392 0l3.032.88c-.715 2.138.565 4.412 2.858 5.078 2.293.666 4.731-.527 5.445-2.665l3.317.963c-.714 2.138.566 4.412 2.859 5.077 2.293.667 4.73-.527 5.445-2.664l3.305.96c-.714 2.137.566 4.41 2.859 5.077 2.292.666 4.73-.527 5.445-2.665l3.043.884L37.608 51l-3.043-.884c.715-2.138-.566-4.41-2.859-5.077-2.293-.666-4.73.527-5.445 2.665l-3.305-.96c.714-2.138-.566-4.412-2.859-5.077-2.293-.667-4.73.527-5.445 2.664l-3.316-.963c.714-2.138-.566-4.411-2.859-5.077-2.293-.667-4.73.527-5.445 2.665L0 40.075 13.392 0zm.882 19.231c1.987 0 2.962 1.102 2.962 3.125V24c0 2.023-.975 3.125-2.962 3.125h-.94v4.75h-1.987V19.231h2.927zm0 1.806h-.94v4.281h.94c.632 0 .975-.289.975-1.192V22.23c0-.904-.343-1.192-.975-1.192zm8.72-1.806l2.023 12.644h-2.005l-.344-2.294H20.23l-.343 2.294h-1.825l2.023-12.644h2.909zm-1.703 2.24l-.957 6.394h1.915l-.958-6.394zm5.326.795c0-2.023.993-3.18 2.926-3.18 1.933 0 2.926 1.157 2.926 3.18v.397H30.59v-.524c0-.903-.36-1.246-.993-1.246-.632 0-.993.343-.993 1.246 0 2.601 3.883 3.089 3.883 6.701 0 2.023-1.011 3.18-2.962 3.18-1.951 0-2.962-1.157-2.962-3.18v-.776h1.878v.903c0 .903.397 1.228 1.03 1.228.632 0 1.03-.325 1.03-1.228 0-2.601-3.884-3.089-3.884-6.701zm7.437 0c0-2.023.994-3.18 2.926-3.18 1.933 0 2.926 1.157 2.926 3.18v.397h-1.878v-.524c0-.903-.361-1.246-.993-1.246-.633 0-.994.343-.994 1.246 0 2.601 3.883 3.089 3.883 6.701 0 2.023-1.011 3.18-2.962 3.18-1.95 0-2.962-1.157-2.962-3.18v-.776h1.879v.903c0 .903.397 1.228 1.03 1.228.631 0 1.029-.325 1.029-1.228 0-2.601-3.884-3.089-3.884-6.701z"/>
</svg>
