<svg width="30" height="18" viewBox="0 0 30 18" fill="none" xmlns="http://www.w3.org/2000/svg">
<path d="M13.4906 6.08993C13.4906 5.24595 14.1335 4.56177 14.9266 4.56177H28.3262C29.1193 4.56177 29.7623 5.24595 29.7623 6.08993V12.9666C29.7623 13.8106 29.1193 14.4948 28.3262 14.4948H14.9266C14.1335 14.4948 13.4906 13.8106 13.4906 12.9666V6.08993Z" fill="#161624"/>
<path d="M19.0814 7.1139H20.235C20.6243 7.1139 20.9163 7.21507 21.1109 7.41741C21.3055 7.61975 21.4029 7.91636 21.4029 8.30724V8.7832C21.4029 9.17409 21.3055 9.4707 21.1109 9.67304C20.9163 9.87538 20.6243 9.97655 20.235 9.97655H19.8647V11.9425H19.0814V7.1139ZM20.235 9.28675C20.3632 9.28675 20.4581 9.25226 20.5198 9.18328C20.5863 9.1143 20.6195 8.99704 20.6195 8.83149V8.25896C20.6195 8.09341 20.5863 7.97614 20.5198 7.90716C20.4581 7.83819 20.3632 7.8037 20.235 7.8037H19.8647V9.28675H20.235Z" fill="url(#paint0_linear_531_1758)"/>
<path d="M21.9707 7.1139H23.1314C23.535 7.1139 23.8293 7.20587 24.0145 7.38982C24.1996 7.56917 24.2922 7.84738 24.2922 8.22447V8.52108C24.2922 9.02233 24.1213 9.33964 23.7795 9.473V9.48679C23.9694 9.54198 24.1023 9.65464 24.1782 9.82479C24.259 9.99494 24.2993 10.2226 24.2993 10.5077V11.3561C24.2993 11.4941 24.3041 11.6068 24.3135 11.6941C24.323 11.7769 24.3468 11.8597 24.3848 11.9425H23.5872C23.5587 11.8643 23.5397 11.7907 23.5302 11.7217C23.5207 11.6527 23.516 11.5286 23.516 11.3492V10.4663C23.516 10.2456 23.478 10.0915 23.402 10.0041C23.3308 9.91676 23.205 9.87308 23.0246 9.87308H22.754V11.9425H21.9707V7.1139ZM23.0389 9.18328C23.1955 9.18328 23.3118 9.1442 23.3878 9.06602C23.4685 8.98784 23.5089 8.85678 23.5089 8.67284V8.30035C23.5089 8.1256 23.4756 7.99914 23.4092 7.92096C23.3475 7.84278 23.2478 7.8037 23.1101 7.8037H22.754V9.18328H23.0389Z" fill="url(#paint1_linear_531_1758)"/>
<path d="M26.1175 12.0114C25.7329 12.0114 25.4386 11.9057 25.2344 11.6941C25.0303 11.4826 24.9282 11.1837 24.9282 10.7974V8.25896C24.9282 7.87267 25.0303 7.57376 25.2344 7.36223C25.4386 7.15069 25.7329 7.04492 26.1175 7.04492C26.502 7.04492 26.7963 7.15069 27.0005 7.36223C27.2046 7.57376 27.3067 7.87267 27.3067 8.25896V10.7974C27.3067 11.1837 27.2046 11.4826 27.0005 11.6941C26.7963 11.9057 26.502 12.0114 26.1175 12.0114ZM26.1175 11.3216C26.3881 11.3216 26.5234 11.163 26.5234 10.8457V8.21067C26.5234 7.89337 26.3881 7.73472 26.1175 7.73472C25.8469 7.73472 25.7116 7.89337 25.7116 8.21067V10.8457C25.7116 11.163 25.8469 11.3216 26.1175 11.3216Z" fill="url(#paint2_linear_531_1758)"/>
<path fill-rule="evenodd" clip-rule="evenodd" d="M3.69097 0.479546L4.84121 0.631259C4.69869 1.44025 5.28869 2.18951 6.15861 2.30442C7.02852 2.41933 7.84911 1.8568 7.99127 1.04786L9.24964 1.21393C9.10749 2.02287 9.69749 2.77213 10.5673 2.88668C11.4373 3.00195 12.2575 2.43911 12.4001 1.63048L13.6539 1.79613C13.5117 2.60471 14.1016 3.3536 14.9716 3.46887C15.8412 3.58384 16.6618 3.0213 16.8043 2.21231L17.9587 2.36486L15.2909 17.5282L14.1365 17.3757C14.279 16.5667 13.6887 15.8182 12.8188 15.7029C11.9489 15.588 11.1286 16.1505 10.9861 16.9595L9.73226 16.7938C9.87442 15.9849 9.28442 15.2356 8.41456 15.1211C7.54459 15.0058 6.72442 15.5687 6.58184 16.3773L5.32383 16.2112C5.46599 15.4022 4.87604 14.6533 4.00613 14.5384C3.13616 14.4231 2.31599 14.986 2.17347 15.795L1.02317 15.6429L3.69097 0.479546Z" fill="#EF4065"/>
<path fill-rule="evenodd" clip-rule="evenodd" d="M3.69097 0.479546L4.84121 0.631259C4.69869 1.44025 5.28869 2.18951 6.15861 2.30442C7.02852 2.41933 7.84911 1.8568 7.99127 1.04786L9.24964 1.21393C9.10749 2.02287 9.69749 2.77213 10.5673 2.88668C11.4373 3.00195 12.2575 2.43911 12.4001 1.63048L13.6539 1.79613C13.5117 2.60471 14.1016 3.3536 14.9716 3.46887C15.8412 3.58384 16.6618 3.0213 16.8043 2.21231L17.9587 2.36486L15.2909 17.5282L14.1365 17.3757C14.279 16.5667 13.6887 15.8182 12.8188 15.7029C11.9489 15.588 11.1286 16.1505 10.9861 16.9595L9.73226 16.7938C9.87442 15.9849 9.28442 15.2356 8.41456 15.1211C7.54459 15.0058 6.72442 15.5687 6.58184 16.3773L5.32383 16.2112C5.46599 15.4022 4.87604 14.6533 4.00613 14.5384C3.13616 14.4231 2.31599 14.986 2.17347 15.795L1.02317 15.6429L3.69097 0.479546Z" fill="url(#paint3_linear_531_1758)"/>
<path fill-rule="evenodd" clip-rule="evenodd" d="M9.97034 8.13941C9.97034 7.41301 10.3298 6.99756 11.0295 6.99756C11.7292 6.99756 12.0886 7.41301 12.0886 8.13941V8.28196H11.4085V8.09381C11.4085 7.76957 11.2782 7.6464 11.049 7.6464C10.8203 7.6464 10.6896 7.76957 10.6896 8.09381C10.6896 8.52253 10.9858 8.79138 11.3062 9.08225C11.6838 9.42501 12.0951 9.79836 12.0951 10.5C12.0951 11.2264 11.7292 11.6418 11.023 11.6418C10.3168 11.6418 9.9508 11.2264 9.9508 10.5V10.2213H10.6306V10.5456C10.6306 10.8698 10.7743 10.9865 11.0034 10.9865C11.2322 10.9865 11.3763 10.8698 11.3763 10.5456C11.3763 10.1168 11.08 9.84799 10.7595 9.55712C10.3818 9.21436 9.97034 8.84101 9.97034 8.13941ZM6.57466 8.17173C6.57466 7.44532 6.22174 7.04962 5.50249 7.04962H4.44299V11.5897H5.16224V9.88415H5.50249C6.22174 9.88415 6.57466 9.48845 6.57466 8.76204V8.17173ZM9.39118 11.5897L8.65891 7.04962H7.60593L6.87365 11.5897H7.53426L7.65841 10.766H8.54091L8.66543 11.5897H9.39118ZM13.7215 6.99756C13.0222 6.99756 12.6623 7.41301 12.6623 8.13941C12.6623 8.84101 13.0738 9.21436 13.4515 9.55712C13.772 9.84799 14.0683 10.1168 14.0683 10.5456C14.0683 10.8698 13.9242 10.9865 13.6958 10.9865C13.4667 10.9865 13.323 10.8698 13.323 10.5456V10.2213H12.6428V10.5C12.6428 11.2264 13.0091 11.6418 13.715 11.6418C14.4212 11.6418 14.7871 11.2264 14.7871 10.5C14.7871 9.79836 14.3758 9.42501 13.9982 9.08225C13.6778 8.79138 13.3816 8.52253 13.3816 8.09381C13.3816 7.76957 13.5123 7.6464 13.7414 7.6464C13.9702 7.6464 14.1008 7.76957 14.1008 8.09381V8.28196H14.7806V8.13941C14.7806 7.41301 14.4212 6.99756 13.7215 6.99756ZM5.16219 7.69809H5.50244C5.73121 7.69809 5.85537 7.80187 5.85537 8.12647V8.80727C5.85537 9.13151 5.73121 9.23529 5.50244 9.23529H5.16219V7.69809ZM8.04261 7.85382L7.6962 10.1497H8.38938L8.04261 7.85382Z" fill="#181B1F"/>
<defs>
<linearGradient id="paint0_linear_531_1758" x1="20.7646" y1="-36.8364" x2="30.47" y2="-36.8364" gradientUnits="userSpaceOnUse">
<stop stop-color="#CDB968"/>
<stop offset="0.510417" stop-color="#E5D88B"/>
<stop offset="1" stop-color="#C7AC7A"/>
</linearGradient>
<linearGradient id="paint1_linear_531_1758" x1="20.7646" y1="-36.8364" x2="30.47" y2="-36.8364" gradientUnits="userSpaceOnUse">
<stop stop-color="#CDB968"/>
<stop offset="0.510417" stop-color="#E5D88B"/>
<stop offset="1" stop-color="#C7AC7A"/>
</linearGradient>
<linearGradient id="paint2_linear_531_1758" x1="20.7646" y1="-36.8364" x2="30.47" y2="-36.8364" gradientUnits="userSpaceOnUse">
<stop stop-color="#CDB968"/>
<stop offset="0.510417" stop-color="#E5D88B"/>
<stop offset="1" stop-color="#C7AC7A"/>
</linearGradient>
<linearGradient id="paint3_linear_531_1758" x1="-0.0301295" y1="8.94825" x2="18.542" y2="9.88395" gradientUnits="userSpaceOnUse">
<stop stop-color="#BBA85D"/>
<stop offset="0.510417" stop-color="#EBDD8B"/>
<stop offset="1" stop-color="#998840"/>
</linearGradient>
</defs>
</svg>
